/* XPM */
static char *abd1faea49514837b06812f0c47cd1e3TcQCHyWBE9tc7u7J[] = {
/* columns rows colors chars-per-pixel */
"64 64 215 2 ",
"   c #007600",
".  c #007700",
"X  c #017700",
"o  c #007800",
"O  c #017800",
"+  c #007900",
"@  c #007A00",
"#  c #007B00",
"$  c #007B01",
"%  c #037B00",
"&  c #007902",
"*  c #007A03",
"=  c #037A02",
"-  c #057801",
";  c #057803",
":  c #047A02",
">  c #047B03",
",  c #077A03",
"<  c #007C00",
"1  c #017C00",
"2  c #007D00",
"3  c #017D01",
"4  c #027D00",
"5  c #027D01",
"6  c #007E00",
"7  c #017E00",
"8  c #007F00",
"9  c #007E01",
"0  c #007F01",
"q  c #017F01",
"w  c #027F00",
"e  c #037E01",
"r  c #027F01",
"t  c #007D02",
"y  c #017D03",
"u  c #027C03",
"i  c #017F02",
"p  c #007E03",
"a  c #027E02",
"s  c #037E02",
"d  c #037F03",
"f  c #047C00",
"g  c #057D01",
"h  c #047F00",
"j  c #057D02",
"k  c #047F02",
"l  c #047F03",
"z  c #067E02",
"x  c #067E03",
"c  c #077F03",
"v  c #037A04",
"b  c #047904",
"n  c #057A05",
"m  c #067B06",
"M  c #037D04",
"N  c #017F04",
"B  c #027E04",
"V  c #037F05",
"C  c #057C04",
"Z  c #067C04",
"A  c #067D05",
"S  c #077D05",
"D  c #047E05",
"F  c #077F04",
"G  c #057C06",
"H  c #077C07",
"J  c #057F06",
"K  c #077E06",
"L  c #087B06",
"P  c #097C07",
"I  c #0A7D06",
"U  c #087E06",
"Y  c #087F07",
"T  c #097F07",
"R  c #0B7E07",
"E  c #087D08",
"W  c #0A7D08",
"Q  c #008000",
"!  c #018000",
"~  c #008100",
"^  c #008001",
"/  c #008101",
"(  c #038000",
")  c #028100",
"_  c #008200",
"`  c #008300",
"'  c #008201",
"]  c #038201",
"[  c #008002",
"{  c #008102",
"}  c #008103",
"|  c #028002",
" . c #038002",
".. c #028003",
"X. c #038103",
"o. c #008202",
"O. c #008203",
"+. c #018203",
"@. c #008303",
"#. c #028302",
"$. c #058001",
"%. c #048101",
"&. c #058003",
"*. c #048103",
"=. c #068102",
"-. c #058202",
";. c #048302",
":. c #008005",
">. c #038104",
",. c #028005",
"<. c #008204",
"1. c #018204",
"2. c #008304",
"3. c #018305",
"4. c #028304",
"5. c #028305",
"6. c #068104",
"7. c #068105",
"8. c #048204",
"9. c #058204",
"0. c #048205",
"q. c #078205",
"w. c #068305",
"e. c #058306",
"r. c #068206",
"t. c #078307",
"y. c #018404",
"u. c #048507",
"i. c #098105",
"p. c #088306",
"a. c #0A8206",
"s. c #0B8307",
"d. c #058109",
"f. c #078108",
"g. c #07810A",
"h. c #068409",
"j. c #098008",
"k. c #0A8008",
"l. c #09800A",
"z. c #08820B",
"x. c #178F13",
"c. c #139114",
"v. c #149014",
"b. c #179216",
"n. c #179517",
"m. c #159617",
"M. c #189014",
"N. c #199115",
"B. c #199116",
"V. c #1A9216",
"C. c #199415",
"Z. c #189515",
"A. c #199417",
"S. c #189517",
"D. c #1B9617",
"F. c #1A9717",
"G. c #199817",
"H. c #1A9119",
"J. c #1B9119",
"K. c #1E911A",
"L. c #1C921A",
"P. c #1C931B",
"I. c #1D931B",
"U. c #199519",
"Y. c #1A9518",
"T. c #189619",
"R. c #199719",
"E. c #1A9719",
"W. c #1A961A",
"Q. c #1C9418",
"!. c #1D9519",
"~. c #1F971B",
"^. c #1F951D",
"/. c #1F971C",
"(. c #1D941E",
"). c #1F941F",
"_. c #179819",
"`. c #1D981B",
"'. c #1C991B",
"]. c #1B991C",
"[. c #19991E",
"{. c #1C981C",
"}. c #1E991C",
"|. c #1E991D",
" X c #1D9A1C",
".X c #1C981E",
"XX c #1C9A1F",
"oX c #20971F",
"OX c #20981C",
"+X c #20981D",
"@X c #21991D",
"#X c #209520",
"$X c #239621",
"%X c #259823",
"&X c #269922",
"*X c #249B23",
"=X c #279A23",
"-X c #229C23",
";X c #279A25",
":X c #239D24",
">X c #229C25",
",X c #259C24",
"<X c #279D25",
"1X c #289B24",
"2X c #299C25",
"3X c #289E26",
"4X c #299F27",
"5X c #2B9E27",
"6X c #2B9E29",
"7X c #2C9F28",
"8X c #2DA029",
"9X c #30A82C",
"0X c #3EB13A",
"qX c #3FB23B",
"wX c #47BA45",
/* pixels */
"wX6X6X;X#X;XL.(.oXoXoXOX}.}.}.}.'.E.E.G.E.E.'.E.}.}.}.}.}.}.}. XOXOXOXOXOXOXOXOXOX@X@XOX@X@XOX@X*X:X:X:X:X:X%X:X*X8X1X2X7X1X7X0X",
"%XP W L m H X = : : t = t = t t t t t = = t t t t t t t t t t t t t : t : t : t : t j = t t : t j y H t y H j H j H : : P : I K.",
").m H m m W j H j 6.j 6.&.&.&.Q &.Q &.Q Q Q Q Q Q 6.Q Q Q &.Q &.&.&.&.Q &.&.j &.t &.j t j &.t Q ,.,.Q H 6.H y H j 6.v H i.: S L.",
").= m H m d.t ,.&.t ,.Q Q Q &.Q 8.Q 8.Q Q 6.6.,.,.Q Q &.,.Q 6.Q Q Q Q &.Q Q &.Q &.Q Q Q t Q &.t t ,.t ,.y y ,.y H 6.y H W j P L.",
"(.= v v = t = = t t t t t t t t t t t t t t t t t t t t t = t t t t t t t t t t t Q t Q t t t Q t t t t t t t t t Q = t &.= j b.",
">Xd.z.d.y d.Q ,.Q Q #.,.Q 4.Q Q 4.8.;.&.;.6.;.6.Q &.Q 6.&.Q Q #.#.4.Q Q Q #.Q #.4.4.#.4.#.4.4.4.4.Q 4.4.4.,.3.6.Q 6.t Q 6.t 6.E.",
"[.t y t t ,.t t t Q Q Q Q Q Q Q Q t t Q t Q Q t t Q Q Q Q Q t t Q Q Q Q Q Q Q Q Q Q Q Q Q Q Q Q Q Q Q Q Q Q Q Q t t t t t = t c.",
"XXy ,.,.t h.Q Q #.Q Q #.Q #.#.#.#.,.Q Q Q Q 4.Q Q Q Q ,.Q Q Q 4.Q Q #.#.,.Q 4.Q ,.Q Q Q Q Q Q 4.,.4.,.#.Q ,.,.Q Q 8.Q Q 8.t ,.T.",
"[.t ,.,.t 4.t #.Q Q #.Q #.#.#.#.,.Q Q ,.Q Q ,.Q Q Q Q Q Q Q Q Q Q Q 4.Q 4.Q Q Q 4.#.Q Q 4.Q Q Q #.Q Q Q Q Q Q #.Q 4.t Q #.t Q m.",
"[.,.Q Q t #.t #.Q #.#.#.#.Q #.Q Q Q Q Q Q Q Q Q Q Q ,.Q Q ,.Q 4.#.Q #.Q Q Q #.Q Q Q Q 4.Q Q #.Q #.#.4.#.4.#.Q Q Q 4.t Q 4.t #.m.",
"[.Q 6.t t #.t Q Q Q Q Q #.Q #.#.Q #.Q #.4.#.Q Q ,.Q Q 4.Q 4.Q Q Q #.Q Q Q #.Q #.Q Q Q #.Q #.Q #.Q Q Q Q Q Q #.Q Q 4.Q Q &.t ,.Z.",
"[.t Q Q t #.t #.Q #.#.Q Q #.#.Q Q 4.Q Q Q Q Q 4.Q #.Q #.Q Q #.Q Q Q Q 4.Q #.Q Q #.4.Q Q Q #.Q Q #.Q 4.Q Q #.Q Q Q 4.t t 8.t Q T.",
"}.t Q j t &.t Q Q Q Q #.Q Q #.Q Q #.Q Q Q 4.#.Q Q Q #.Q Q #.Q Q 4.Q ,.Q Q #.Q ,.Q Q Q Q Q 4.Q ,.Q Q Q #.Q Q Q Q Q ;.Q t ;.t &.Z.",
"}.t &.Q t ;.t Q Q Q Q Q #.Q #.Q Q #.Q 4.Q Q Q Q #.Q 4.Q Q 4.Q 4.Q Q Q Q Q Q Q Q Q ,.Q ,.Q Q Q Q Q #.Q Q Q Q Q Q Q &.t t ;.t &.Z.",
"}.t &.t t &.t &.Q Q Q Q Q #.Q Q Q Q #.Q #.Q Q 4.Q 4.Q Q Q Q #.Q ,.Q Q Q Q Q Q Q Q ,.Q Q Q Q Q Q Q Q Q Q &.Q Q Q &.&.t Q &.t &.Z.",
"}.j j Q t &.t ;.Q Q Q #.Q Q Q #.#.Q Q Q 4.Q Q #.Q Q Q #.#.Q Q Q Q Q ,.Q ,.Q Q ,.Q Q Q Q ,.Q Q ,.Q Q Q Q Q Q Q Q Q &.t t &.= &.Z.",
"Z.&.t &.Q t Q Q Q Q ,.#.Q Q #.Q Q #.,.Q Q ,.Q #.Q Q ,.Q Q 4.Q ,.Q ,.Q Q ,.Q Q ,.Q Q Q Q Q ,.Q Q #.#.Q Q Q Q Q Q Q ,.t t ;.t &.n.",
"n.&.t 8.t t 4.Q Q Q Q Q Q #.Q Q Q Q Q Q Q Q Q Q Q Q Q Q Q Q Q Q Q Q Q ,.Q Q Q Q Q ,.Q Q Q Q Q #.Q Q Q #.#.Q Q ,.Q 4.t t &.t &.Z.",
"Z.Q t 8.Q t Q Q Q ,.Q Q Q Q #.#.,.Q Q Q Q Q Q Q Q ,.,.Q Q Q Q Q Q Q Q Q Q Q Q Q Q ,.Q ,.Q Q ,.Q Q Q Q #.#.Q Q Q Q 4.t Q &.t Q '.",
"Z.&.t 6.t t 4.Q Q Q 4.#.#.Q Q Q Q Q ,.Q ,.Q Q ,.Q Q Q Q ,.Q Q ,.Q ,.Q Q ,.Q Q ,.Q Q Q Q Q ,.Q Q 4.#.Q Q ,.Q Q ,.Q 4.t t Q t &.n.",
"Z.Q t 8.t t Q Q ,.Q Q Q Q 4.#.Q Q Q Q Q Q Q ,.Q Q Q Q Q Q ,.Q Q Q ,.Q Q Q ,.Q Q Q Q Q Q Q ,.Q #.Q Q #.Q Q 4.Q Q Q #.t Q 8.t &.Z.",
"E.&.t ;.Q t 4.Q Q Q #.Q Q Q Q Q Q ,.Q Q Q Q Q Q Q ,.,.Q Q Q Q ,.Q Q Q Q Q Q Q Q Q ,.,.Q Q Q Q Q Q #.Q Q Q Q Q Q Q Q t t 8.t 6.Z.",
"Z.6.t &.Q t Q Q Q Q #.Q #.Q Q 4.Q ,.Q ,.,.Q Q ,.Q Q Q Q Q Q Q Q Q ,.,.Q ,.Q Q ,.Q Q Q Q ,.Q Q Q Q Q #.4.#.4.Q ,.Q ,.t t &.t &.n.",
"Z.,.t &.t t 4.Q ,.Q Q Q 4.Q Q #.Q Q Q Q Q Q Q Q Q Q ,.Q Q ,.Q Q Q Q Q Q Q Q Q Q Q ,.Q Q Q Q Q #.4.Q Q Q Q Q Q Q Q 4.t Q #.t 6.Z.",
" Xt Q Q t &.t Q Q Q Q 4.#.Q Q Q Q Q Q Q Q Q Q Q Q ,.Q Q ,.Q Q ,.Q Q Q Q Q Q Q Q Q Q ,.Q Q ,.Q ,.4.Q Q Q Q Q Q Q Q 4.t t ;.t &.n.",
"}.t &.Q t #.t Q Q Q Q Q Q Q 4.Q Q ,.,.Q ,.Q Q ,.Q Q Q Q Q Q Q Q Q ,.Q ,.,.Q Q ,.Q Q Q Q Q Q Q Q Q Q #.4.#.#.,.Q Q ,.t t &.t &.Z.",
"}.Q Q Q t &.t Q Q Q #.Q Q 4.Q 4.Q Q Q Q Q Q Q Q Q ,.,.Q Q Q Q Q Q ,.Q Q Q Q Q Q Q ,.,.Q Q Q Q 4.Q #.Q Q Q Q ,.Q Q 4.t Q &.t Q '.",
"}.t &.t t ;.t #.,.Q 4.Q Q #.Q Q Q ,.Q Q Q ,.Q Q Q Q Q Q ,.Q Q ,.Q Q Q Q Q Q ,.Q Q Q Q Q Q ,.Q Q Q Q #.Q Q #.Q Q Q 4.t t Q t &.n.",
"}.t &.Q t 6.t Q Q Q Q 4.Q Q #.Q Q ,.Q Q ,.Q Q ,.Q Q Q Q Q ,.Q Q Q ,.Q Q ,.Q Q ,.Q Q Q Q Q ,.Q Q 4.#.Q Q Q Q Q Q Q #.t Q 8.t &.Z.",
"}.t Q Q t 6.t Q Q Q Q #.Q #.Q Q Q Q Q Q Q Q Q Q Q ,.Q ,.Q Q Q Q Q Q Q ,.Q Q Q Q Q ,.,.Q Q Q Q #.Q Q Q 4.#.Q ,.Q Q Q t t 8.t 6.Z.",
"'.Q Q t t Q t Q ,.Q Q Q Q Q #.4.Q Q Q ,.Q Q Q Q Q ,.Q Q Q Q Q ,.Q Q Q Q Q Q Q Q Q Q Q Q Q Q ,.Q Q Q Q #.#.Q Q Q Q ,.t t &.t &.n.",
"}.t &.Q = #.t #.Q Q 4.Q 4.Q Q Q Q ,.Q Q ,.Q Q ,.Q Q Q Q Q ,.Q Q Q ,.Q Q ,.Q Q ,.Q Q ,.Q Q ,.Q Q #.4.Q Q Q ,.Q Q Q 4.t Q #.t 6.Z.",
"OXt &.&.t 4.Q 4.Q Q Q 4.Q 4.Q Q Q Q ,.Q Q Q Q Q ,.Q Q ,.Q Q ,.Q Q Q Q Q Q Q Q Q Q Q Q Q Q Q ,.Q #.#.Q Q Q Q Q Q Q 4.t t &.t &.Z.",
"OXj Q t t #.t Q 4.#.Q Q Q Q Q ,.,.Q Q Q Q Q ,.Q Q Q Q Q ,.Q Q Q ,.Q ,.Q Q ,.,.Q Q ,.,.Q Q ,.Q Q Q Q Q #.#.Q Q ,.Q 4.t Q #.t &.Z.",
"!.t Q Q t #.t #.Q Q #.Q #.Q Q Q Q Q Q Q ,.Q ,.Q Q Q Q Q Q Q Q Q Q Q ,.Q Q Q Q Q Q Q Q Q Q ,.Q #.Q Q Q 4.#.Q Q Q Q ,.t t &.t Q E.",
"OXj j Q t #.Q Q Q #.Q Q 4.Q Q Q Q Q ,.Q Q Q Q Q ,.Q Q ,.Q Q ,.Q Q Q Q Q Q ,.Q Q Q Q ,.Q Q Q Q Q 4.#.Q Q ,.Q Q ,.Q 4.t Q 6.t Q E.",
"!.j j Q t #.t #.Q Q #.Q Q #.Q ,.,.Q Q ,.Q Q Q Q Q Q ,.Q Q Q ,.Q ,.Q Q ,.Q Q Q Q Q Q Q Q ,.Q Q Q Q Q #.Q Q 4.Q Q Q #.t Q 6.t &.n.",
"OXt j Q t #.Q Q 4.Q 4.Q Q #.Q Q Q Q Q Q Q ,.,.Q Q Q Q Q Q Q Q Q Q Q Q Q ,.Q Q ,.,.Q Q ,.Q Q Q #.Q #.Q Q Q Q Q Q Q Q t t 4.t &.Z.",
"OXt &.Q t #.Q #.Q 4.Q Q Q Q Q Q Q Q Q Q Q Q Q Q ,.Q Q ,.Q ,.,.Q Q Q Q Q Q Q Q Q Q Q Q Q Q Q Q ,.Q Q #.4.#.4.Q ,.Q ,.t t &.t Q E.",
"OXt &.t t 4.t 4.Q Q Q #.#.,.Q Q ,.Q Q ,.Q Q ,.Q Q Q Q Q Q Q Q Q ,.Q Q ,.Q Q ,.Q Q ,.Q Q ,.Q Q Q 4.Q Q Q Q Q Q Q Q 4.t Q Q t 6.Z.",
"OXt &.t t #.t #.4.Q Q Q 4.Q Q ,.Q Q ,.Q Q ,.Q Q Q Q Q Q Q Q Q Q Q Q ,.Q Q Q Q Q Q Q Q Q ,.Q Q 4.4.Q Q Q Q Q Q Q Q 4.t t ;.t &.n.",
"!.j &.t t #.Q Q Q Q #.Q #.Q Q Q Q Q Q Q Q Q Q Q ,.Q Q ,.,.Q ,.Q Q Q Q Q Q ,.,.Q Q ,.,.Q Q Q Q Q Q Q #.4.#.#.,.Q Q ,.t t &.t &.Z.",
"OXt j Q t 4.t #.Q #.Q #.Q Q Q Q ,.Q Q Q Q ,.,.Q Q Q Q Q Q Q ,.Q ,.Q Q ,.Q Q Q Q Q Q Q Q Q Q Q Q Q #.Q Q Q Q ,.Q Q 4.t Q &.t Q '.",
"OXt j Q t 4.Q Q Q 4.Q Q Q 4.Q ,.Q Q ,.Q Q Q Q Q Q ,.Q Q Q Q Q Q Q Q Q Q Q Q ,.Q Q ,.Q Q ,.Q Q #.Q Q #.Q Q #.Q Q Q 4.t t Q t &.n.",
"OXt &.t t #.t #.Q #.Q Q Q #.Q Q Q Q Q Q Q Q Q Q ,.Q Q ,.Q ,.Q Q Q Q Q Q Q Q ,.Q Q ,.Q Q Q Q ,.Q 4.#.Q Q Q Q Q Q Q #.t Q 8.t &.Z.",
"OXj &.Q t #.Q Q Q 4.Q 4.Q Q ,.Q Q ,.Q Q Q ,.,.Q Q Q Q Q Q Q Q ,.,.Q ,.Q Q ,.Q Q Q Q ,.Q Q ,.Q Q Q Q Q 4.#.Q ,.Q Q Q t t 8.t 6.Z.",
"!.t j Q t 4.t #.Q Q 4.Q #.Q ,.Q Q ,.Q ,.Q Q Q Q Q Q Q Q Q Q Q Q Q Q ,.Q Q Q Q Q Q Q Q Q Q ,.Q #.Q Q Q #.#.Q Q Q Q ,.t t &.t &.n.",
"OXj Q Q t 4.Q Q #.Q Q Q #.Q Q Q Q Q Q #.Q ,.Q Q Q #.,.Q Q ,.Q 4.Q Q Q Q Q #.,.Q Q ,.Q #.Q Q Q Q #.4.Q Q Q ,.Q Q Q 4.t Q #.t 6.Z.",
":Xt t Q Q 4.t 4.Q #.#.#.Q #.Q Q Q #.Q Q Q #.Q Q 4.#.Q Q 4.Q Q Q Q Q Q #.Q #.4.Q Q Q Q #.Q #.4.Q Q Q Q #.4.Q Q Q ,.4.Q Q 6.t Q Z.",
":X= y 6.,.4.t 4.#.Q Q #.Q Q Q Q Q 4.Q 4.Q Q #.Q Q Q Q 4.Q Q #.Q #.4.Q Q Q Q Q Q #.4.Q Q Q Q Q Q Q 4.Q Q Q Q #.Q Q #.t Q ,.t Q E.",
":Xv y ,.Q ,.t 4.Q Q #.#.#.Q Q Q Q Q 4.Q 4.#.Q Q Q Q Q #.Q #.Q #.Q Q 4.Q 4.Q Q #.Q Q 4.Q 4.Q Q #.4.Q 4.Q Q #.Q Q Q ,.t t &.t 6.T.",
":Xy y ,.Q 4.t #.Q #.#.Q Q Q Q Q #.Q Q Q Q Q Q 4.#.4.Q Q Q 4.Q Q Q 4.Q Q #.Q Q #.Q 4.Q Q #.Q Q 4.Q Q #.Q Q Q ,.Q Q 4.t Q 6.t Q n.",
",Xt y ,.,.,.t #.#.Q Q Q Q Q Q Q Q Q #.#.Q 4.#.Q Q Q Q Q #.Q #.Q Q Q 4.Q #.Q Q Q Q Q 4.Q #.Q Q Q Q #.Q Q 4.Q ,.Q Q Q t Q 6.t &.n.",
"*Xm y y Q 4.t 4.Q Q #.#.Q Q Q Q Q #.Q Q Q Q Q Q Q 4.#.Q #.Q Q Q #.Q #.Q ,.Q #.Q #.Q #.Q Q Q #.Q Q Q #.Q #.Q Q Q Q &.t t 4.t &.Z.",
",X: y Q ,.4.t ,.Q #.Q Q Q Q Q Q Q ,.,.Q Q ,.,.Q Q Q Q ,.Q Q Q ,.Q Q Q Q Q Q Q Q Q Q Q Q Q ,.,.Q 4.#.Q Q Q Q Q y Q 6.t t &.t Q E.",
",Xj m H t 6.t #.Q Q #.Q Q Q Q &.Q Q Q Q Q Q Q Q Q ,.Q Q Q ,.Q Q ,.Q Q ,.Q ,.Q Q ,.Q Q ,.Q Q Q Q Q Q Q 4.Q ,.Q Q t 6.t Q &.t 6.Z.",
",XH j H t 8.t ,.#.#.Q Q Q Q &.Q Q Q Q ,.Q ,.Q Q ,.Q Q Q Q ,.Q Q Q ,.Q Q Q Q ,.#.Q Q #.Q Q ,.Q Q ,.Q Q Q Q Q &.Q Q 6.j Q q.t q.V.",
"8XH = y j Q t 4.Q Q Q t Q t t Q t Q Q Q t Q Q t Q Q Q t Q Q Q t Q Q Q t Q t t Q t Q Q t Q Q Q t Q t Q Q t t t t Q &.t Q &.t j Z.",
"*Xj t j t Q = Q 4.#.#.#.;.;.&.;.;.&.6.;.;.&.#.;.6.,.;.;.6.,.;.;.6.&.#.;.#.&.6.4.;.&.8.;.6.&.#.;.4.4.;.&.;.6.;.8.t &.t t &.t S V.",
"8XP H W Q i.t 4.t t Q t t Q t t t t t t t t t t t t t t t t t t t t t t t t t t t t t t t t t t t Q t t t t t t &.8.&.&.&.j s.V.",
"8XI S P t i.t 6.Q #.&.#.&.&.&.Q &.Q 6.6.,.6.6.Q Q 8.Q 8.Q 6.,.,.,.6.6.Q Q 6.Q 8.Q 6.,.,.6.6.6.Q Q 6.,.Q &.&.&.6.&.&.t &.s.= q.Q.",
"%X: X = = t X t Q #.Q &.&.&.&.&.Q Q Q ,.Q Q Q Q Q &.6.Q Q Q Q &.Q Q Q Q &.Q 6.Q Q Q Q &.Q Q Q Q &.Q Q &.Q Q Q &.= t = = j = = x.",
"8XI P 6.H 8.t 8.Q t Q t t t t t t = t = t t t = t = t t t = t = t t t = t = t t t = t = t t = t t t t t t = t = &.s.q.S s.j i.!.",
"qXL.H.H.b.E.b.E._._.G.G.V.G.D.V.E.'.Z.E.E.'.E.'.Z.'.Z.'.E.'.Z.E.E.'.E.'.Z.'.Z.'.E.E.E.E.E.E.E.'.Z.n.'.'.E.'.Z.'.Z.Z.V.V.V.M.!.9X"
};
